name analog
datacolumns 19
datarows 18
range 0.0 0.0085
endheader
time	ground_force_vx	ground_force_vy	ground_force_vz	ground_force_px	ground_force_py	ground_force_pz	l_ground_force_vx	l_ground_force_vy	l_ground_force_vz	l_ground_force_px	l_ground_force_py	l_ground_force_pz	ground_torque_x	ground_torque_y	ground_torque_z	l_ground_torque_x	l_ground_torque_y	l_ground_torque_z
0.0	-0.0	-0.0	-0.0	-1.2767417430877686	58.77375411987305	-424.4736633300781	3.205873250961304	-59.80601501464844	-358.0254821777344	-0.0	-0.0	-0.0	-0.0	-0.0	-0.0	95721.5859375	-25211.224609375	1826.259765625
0.0005	-0.0	-0.0	-0.0	-0.7906478643417358	59.15811538696289	-424.3906555175781	3.282299041748047	-59.80598068237305	-358.4341125488281	-0.0	-0.0	-0.0	-0.0	-0.0	-0.0	95787.90625	-24948.166015625	1741.417724609375
0.001	-0.0	-0.0	-0.0	-0.6733148097991943	59.36458587646485	-422.4031982421875	3.3433613777160645	-59.86994552612305	-357.53125	-0.0	-0.0	-0.0	-0.0	-0.0	-0.0	96075.4375	-25129.560546875	1865.250732421875
0.0015	-0.0	-0.0	-0.0	-1.139369010925293	59.27172088623047	-423.7195129394531	3.704964637756348	-59.76953506469727	-356.8193359375	-0.0	-0.0	-0.0	-0.0	-0.0	-0.0	95775.6796875	-25318.525390625	1873.73583984375
0.002	-0.0	-0.0	-0.0	-0.9042440056800842	59.105587005615234	-424.7480773925781	3.576434850692749	-59.677581787109375	-358.7366943359375	-0.0	-0.0	-0.0	-0.0	-0.0	-0.0	95658.0234375	-24989.7109375	1891.18798828125
0.0025	-0.0	-0.0	-0.0	-1.066032886505127	58.91519927978516	-422.5948486328125	3.371009826660156	-59.99453353881836	-356.8805847167969	-0.0	-0.0	-0.0	-0.0	-0.0	-0.0	95608.1796875	-25035.806640625	1771.0491943359375
0.003	-0.0	-0.0	-0.0	-1.2489471435546875	59.23081207275391	-423.2051086425781	3.5725717544555664	-59.781768798828125	-357.5787658691406	-0.0	-0.0	-0.0	-0.0	-0.0	-0.0	95759.0078125	-25071.953125	1929.038330078125
0.0035	-0.0	-0.0	-0.0	-1.801236271858215	58.9442253112793	-423.5777893066406	3.584533214569092	-59.78180313110352	-357.69097900390625	-0.0	-0.0	-0.0	-0.0	-0.0	-0.0	95623.8046875	-25055.3125	1919.5513916015625
0.004	-0.0	-0.0	-0.0	-1.4805957078933716	58.85003280639648	-421.2279052734375	3.5124382972717285	-59.69351577758789	-356.8801574707031	-0.0	-0.0	-0.0	-0.0	-0.0	-0.0	95534.359375	-25136.39453125	1927.5341796875
0.0045000000000000005	-0.0	-0.0	-0.0	-1.4926626682281494	58.695594787597656	-424.4275817871094	3.394932985305786	-59.629051208496094	-358.0883178710937	-0.0	-0.0	-0.0	-0.0	-0.0	-0.0	95570.9140625	-25161.53515625	1974.7593994140625
0.005	-0.0	-0.0	-0.0	-1.1659071445465088	58.46954345703125	-423.5099792480469	3.7310791015625	-59.94668197631836	-357.6720886230469	-0.0	-0.0	-0.0	-0.0	-0.0	-0.0	95715.265625	-24647.474609375	1982.893798828125
0.0055	-0.0	-0.0	-0.0	-1.528464913368225	59.24209213256836	-421.743896484375	3.217368602752685	-59.95859146118164	-356.32183837890625	-0.0	-0.0	-0.0	-0.0	-0.0	-0.0	95425.2890625	-24927.958984375	1867.821044921875
0.006	-0.0	-0.0	-0.0	-1.2844964265823364	59.51543045043945	-423.2972106933594	3.371009826660156	-59.51131057739258	-358.0203857421875	-0.0	-0.0	-0.0	-0.0	-0.0	-0.0	95287.28125	-24926.783203125	1984.6171875
0.006500000000000001	-0.0	-0.0	-0.0	-1.070526123046875	59.37915802001953	-423.3434143066406	3.613504409790039	-59.78201675415039	-358.951416015625	-0.0	-0.0	-0.0	-0.0	-0.0	-0.0	95681.296875	-25029.43359375	1887.836669921875
0.007	-0.0	-0.0	-0.0	-1.6175671815872192	59.08169174194336	-422.3764343261719	3.501301050186157	-60.11187744140625	-358.5787353515625	-0.0	-0.0	-0.0	-0.0	-0.0	-0.0	95426.359375	-25078.404296875	1923.2642822265625
0.0075	-0.0	-0.0	-0.0	-1.8616790771484373	59.123931884765625	-424.5222778320313	3.613649368286133	-60.1353759765625	-358.2757873535156	-0.0	-0.0	-0.0	-0.0	-0.0	-0.0	95550.671875	-24986.736328125	1923.31396484375
0.008	-0.0	-0.0	-0.0	-1.37327778339386	58.96198272705078	-423.6481628417969	3.104877471923828	-60.377052307128906	-357.5773620605469	-0.0	-0.0	-0.0	-0.0	-0.0	-0.0	95964.625	-25045.67578125	2140.5986328125
0.0085	-0.0	-0.0	-0.0	-1.7725399732589722	58.771915435791016	-422.5418090820313	3.8495900630950928	-59.9286003112793	-357.22808837890625	-0.0	-0.0	-0.0	-0.0	-0.0	-0.0	95965.8046875	-25253.896484375	2030.4305419921875
